<svg width="2364" height="2410" viewBox="0 0 2364 2410" fill="none" xmlns="http://www.w3.org/2000/svg">
<g filter="url(#filter0_dddddd_351_49567)">
<path d="M1187 1019.43L1340.21 1107.89C1343.3 1109.67 1345.21 1112.97 1345.21 1116.55V1293.45C1345.21 1297.03 1343.3 1300.33 1340.21 1302.11L1187 1390.57C1183.91 1392.35 1180.09 1392.35 1177 1390.57L1023.79 1302.11C1020.7 1300.33 1018.79 1297.03 1018.79 1293.45V1116.55C1018.79 1112.97 1020.7 1109.67 1023.79 1107.89L1177 1019.43C1180.09 1017.65 1183.91 1017.65 1187 1019.43Z" stroke="#95DFDC" stroke-width="20"/>
</g>
<g filter="url(#filter1_dddddd_351_49567)">
<path d="M1181.23 1283C1156.23 1283 1136.93 1278 1123.33 1268C1109.73 1257.8 1103.03 1244.5 1103.23 1228.1H1159.63C1159.83 1234.5 1162.13 1239 1166.53 1241.6C1171.13 1244 1176.53 1245.2 1182.73 1245.2C1189.53 1245.2 1194.53 1244.2 1197.73 1242.2C1200.93 1240 1202.53 1237.3 1202.53 1234.1C1202.53 1230.3 1201.53 1227.6 1199.53 1226C1197.53 1224.2 1194.43 1222.9 1190.23 1222.1C1186.23 1221.3 1181.03 1220.5 1174.63 1219.7C1165.83 1218.5 1157.43 1217 1149.43 1215.2C1141.43 1213.2 1134.23 1210.4 1127.83 1206.8C1121.63 1203 1116.63 1198 1112.83 1191.8C1109.23 1185.6 1107.43 1177.7 1107.43 1168.1C1107.43 1155.7 1110.63 1145.5 1117.03 1137.5C1123.43 1129.5 1132.33 1123.6 1143.73 1119.8C1155.13 1115.8 1168.43 1113.8 1183.63 1113.8C1198.23 1113.8 1210.93 1115.9 1221.73 1120.1C1232.53 1124.1 1240.93 1130 1246.93 1137.8C1253.13 1145.4 1256.43 1154.7 1256.83 1165.7H1200.73C1200.73 1162.9 1199.93 1160.5 1198.33 1158.5C1196.93 1156.3 1194.83 1154.6 1192.03 1153.4C1189.23 1152.2 1185.83 1151.6 1181.83 1151.6C1176.03 1151.6 1171.73 1152.6 1168.93 1154.6C1166.13 1156.6 1164.73 1159.2 1164.73 1162.4C1164.73 1165.2 1165.73 1167.5 1167.73 1169.3C1169.73 1170.9 1172.83 1172.2 1177.03 1173.2C1181.23 1174 1186.63 1174.8 1193.23 1175.6C1201.63 1176.6 1209.83 1178 1217.83 1179.8C1225.83 1181.6 1233.03 1184.3 1239.43 1187.9C1245.83 1191.3 1250.93 1196.3 1254.73 1202.9C1258.53 1209.5 1260.43 1218.1 1260.43 1228.7C1260.43 1247.9 1253.43 1261.8 1239.43 1270.4C1225.63 1278.8 1206.23 1283 1181.23 1283Z" fill="#4884EE"/>
</g>
<defs>
<filter id="filter0_dddddd_351_49567" x="0.794922" y="0.0939941" width="2362.41" height="2409.81" filterUnits="userSpaceOnUse" color-interpolation-filters="sRGB">
<feFlood flood-opacity="0" result="BackgroundImageFix"/>
<feColorMatrix in="SourceAlpha" type="matrix" values="0 0 0 0 0 0 0 0 0 0 0 0 0 0 0 0 0 0 127 0" result="hardAlpha"/>
<feOffset/>
<feGaussianBlur stdDeviation="12"/>
<feColorMatrix type="matrix" values="0 0 0 0 0.301961 0 0 0 0 0.8 0 0 0 0 0.776471 0 0 0 1 0"/>
<feBlend mode="normal" in2="BackgroundImageFix" result="effect1_dropShadow_351_49567"/>
<feColorMatrix in="SourceAlpha" type="matrix" values="0 0 0 0 0 0 0 0 0 0 0 0 0 0 0 0 0 0 127 0" result="hardAlpha"/>
<feOffset/>
<feGaussianBlur stdDeviation="24"/>
<feColorMatrix type="matrix" values="0 0 0 0 0.301961 0 0 0 0 0.8 0 0 0 0 0.776471 0 0 0 1 0"/>
<feBlend mode="normal" in2="effect1_dropShadow_351_49567" result="effect2_dropShadow_351_49567"/>
<feColorMatrix in="SourceAlpha" type="matrix" values="0 0 0 0 0 0 0 0 0 0 0 0 0 0 0 0 0 0 127 0" result="hardAlpha"/>
<feOffset/>
<feGaussianBlur stdDeviation="84"/>
<feColorMatrix type="matrix" values="0 0 0 0 0.301961 0 0 0 0 0.8 0 0 0 0 0.776471 0 0 0 1 0"/>
<feBlend mode="normal" in2="effect2_dropShadow_351_49567" result="effect3_dropShadow_351_49567"/>
<feColorMatrix in="SourceAlpha" type="matrix" values="0 0 0 0 0 0 0 0 0 0 0 0 0 0 0 0 0 0 127 0" result="hardAlpha"/>
<feOffset/>
<feGaussianBlur stdDeviation="168"/>
<feColorMatrix type="matrix" values="0 0 0 0 0.301961 0 0 0 0 0.8 0 0 0 0 0.776471 0 0 0 1 0"/>
<feBlend mode="normal" in2="effect3_dropShadow_351_49567" result="effect4_dropShadow_351_49567"/>
<feColorMatrix in="SourceAlpha" type="matrix" values="0 0 0 0 0 0 0 0 0 0 0 0 0 0 0 0 0 0 127 0" result="hardAlpha"/>
<feOffset/>
<feGaussianBlur stdDeviation="288"/>
<feColorMatrix type="matrix" values="0 0 0 0 0.301961 0 0 0 0 0.8 0 0 0 0 0.776471 0 0 0 1 0"/>
<feBlend mode="normal" in2="effect4_dropShadow_351_49567" result="effect5_dropShadow_351_49567"/>
<feColorMatrix in="SourceAlpha" type="matrix" values="0 0 0 0 0 0 0 0 0 0 0 0 0 0 0 0 0 0 127 0" result="hardAlpha"/>
<feOffset/>
<feGaussianBlur stdDeviation="504"/>
<feColorMatrix type="matrix" values="0 0 0 0 0.301961 0 0 0 0 0.8 0 0 0 0 0.776471 0 0 0 1 0"/>
<feBlend mode="normal" in2="effect5_dropShadow_351_49567" result="effect6_dropShadow_351_49567"/>
<feBlend mode="normal" in="SourceGraphic" in2="effect6_dropShadow_351_49567" result="shape"/>
</filter>
<filter id="filter1_dddddd_351_49567" x="1102.93" y="1113.8" width="157.5" height="169.2" filterUnits="userSpaceOnUse" color-interpolation-filters="sRGB">
<feFlood flood-opacity="0" result="BackgroundImageFix"/>
<feColorMatrix in="SourceAlpha" type="matrix" values="0 0 0 0 0 0 0 0 0 0 0 0 0 0 0 0 0 0 127 0" result="hardAlpha"/>
<feOffset/>
<feColorMatrix type="matrix" values="0 0 0 0 0.282353 0 0 0 0 0.517647 0 0 0 0 0.933333 0 0 0 1 0"/>
<feBlend mode="normal" in2="BackgroundImageFix" result="effect1_dropShadow_351_49567"/>
<feColorMatrix in="SourceAlpha" type="matrix" values="0 0 0 0 0 0 0 0 0 0 0 0 0 0 0 0 0 0 127 0" result="hardAlpha"/>
<feOffset/>
<feColorMatrix type="matrix" values="0 0 0 0 0.282353 0 0 0 0 0.517647 0 0 0 0 0.933333 0 0 0 1 0"/>
<feBlend mode="normal" in2="effect1_dropShadow_351_49567" result="effect2_dropShadow_351_49567"/>
<feColorMatrix in="SourceAlpha" type="matrix" values="0 0 0 0 0 0 0 0 0 0 0 0 0 0 0 0 0 0 127 0" result="hardAlpha"/>
<feOffset/>
<feColorMatrix type="matrix" values="0 0 0 0 0.282353 0 0 0 0 0.517647 0 0 0 0 0.933333 0 0 0 1 0"/>
<feBlend mode="normal" in2="effect2_dropShadow_351_49567" result="effect3_dropShadow_351_49567"/>
<feColorMatrix in="SourceAlpha" type="matrix" values="0 0 0 0 0 0 0 0 0 0 0 0 0 0 0 0 0 0 127 0" result="hardAlpha"/>
<feOffset/>
<feColorMatrix type="matrix" values="0 0 0 0 0.282353 0 0 0 0 0.517647 0 0 0 0 0.933333 0 0 0 1 0"/>
<feBlend mode="normal" in2="effect3_dropShadow_351_49567" result="effect4_dropShadow_351_49567"/>
<feColorMatrix in="SourceAlpha" type="matrix" values="0 0 0 0 0 0 0 0 0 0 0 0 0 0 0 0 0 0 127 0" result="hardAlpha"/>
<feOffset/>
<feColorMatrix type="matrix" values="0 0 0 0 0.282353 0 0 0 0 0.517647 0 0 0 0 0.933333 0 0 0 1 0"/>
<feBlend mode="normal" in2="effect4_dropShadow_351_49567" result="effect5_dropShadow_351_49567"/>
<feColorMatrix in="SourceAlpha" type="matrix" values="0 0 0 0 0 0 0 0 0 0 0 0 0 0 0 0 0 0 127 0" result="hardAlpha"/>
<feOffset/>
<feColorMatrix type="matrix" values="0 0 0 0 0.282353 0 0 0 0 0.517647 0 0 0 0 0.933333 0 0 0 1 0"/>
<feBlend mode="normal" in2="effect5_dropShadow_351_49567" result="effect6_dropShadow_351_49567"/>
<feBlend mode="normal" in="SourceGraphic" in2="effect6_dropShadow_351_49567" result="shape"/>
</filter>
</defs>
</svg>
